<?xml version="1.0" encoding="UTF-8" standalone="no"?>
<svg
   xmlns:dc="http://purl.org/dc/elements/1.1/"
   xmlns:cc="http://creativecommons.org/ns#"
   xmlns:rdf="http://www.w3.org/1999/02/22-rdf-syntax-ns#"
   xmlns:svg="http://www.w3.org/2000/svg"
   xmlns="http://www.w3.org/2000/svg"
   viewBox="0 0 400 400"
   height="400"
   width="400"
   xml:space="preserve"
   id="svg2"
   version="1.1"><metadata
     id="metadata8"><rdf:RDF><cc:Work
         rdf:about=""><dc:format>image/svg+xml</dc:format><dc:type
           rdf:resource="http://purl.org/dc/dcmitype/StillImage" /></cc:Work></rdf:RDF></metadata><defs
     id="defs6"><clipPath
       id="clipPath18"
       clipPathUnits="userSpaceOnUse"><path
         id="path16"
         d="M 0.172,0 H 300 V 299.828 H 0.172 Z" /></clipPath></defs><g
     transform="matrix(1.3333333,0,0,-1.3333333,0,400)"
     id="g10"><g
       id="g12"><g
         clip-path="url(#clipPath18)"
         id="g14"><g
           transform="translate(173.0614,208.7447)"
           id="g20"><path
             id="path22"
             style="fill:#231f20;fill-opacity:1;fill-rule:nonzero;stroke:none"
             d="m 0,0 v -8.643 c -7.33,1.77 -15,2.7 -22.89,2.7 -7.89,0 -15.56,-0.93 -22.89,-2.7 V 0 c 0,3.198 2.288,5.918 5.429,6.521 5.649,1.082 11.487,1.646 17.461,1.646 5.975,0 11.813,-0.564 17.461,-1.646 C -2.288,5.918 0,3.198 0,0" /></g><g
           transform="translate(144.5468,237.3106)"
           id="g24"><path
             id="path26"
             style="fill:#231f20;fill-opacity:1;fill-rule:nonzero;stroke:none"
             d="m 0,0 c -0.217,0.222 -3.569,-7.795 0.097,-9.908 3.472,-1.529 8.448,1.243 12.438,-1.807 1.256,2.748 -0.148,5.235 -2.041,6.744 C 8.716,-3.326 0.432,-4.338 0,0" /></g><g
           transform="translate(150.9755,246.3013)"
           id="g28"><path
             id="path30"
             style="fill:#231f20;fill-opacity:1;fill-rule:nonzero;stroke:none"
             d="m 0,0 c -0.141,0.255 -5.772,-6.096 -3.248,-9.162 2.517,-2.502 7.754,-1.576 10.217,-5.631 1.994,2.088 1.629,4.876 0.494,6.873 C 6.477,-5.832 -1.121,-4.168 0,0" /></g><g
           transform="translate(159.789,252.6202)"
           id="g32"><path
             id="path34"
             style="fill:#231f20;fill-opacity:1;fill-rule:nonzero;stroke:none"
             d="m 0,0 c -0.071,0.284 -7.397,-3.942 -6.194,-7.579 1.35,-3.116 6.277,-3.855 7.043,-8.417 2.463,1.35 3.172,4.11 2.897,6.323 C 3.639,-7.42 -2.562,-3.554 0,0" /></g><g
           transform="translate(170.3984,255.7481)"
           id="g36"><path
             id="path38"
             style="fill:#231f20;fill-opacity:1;fill-rule:nonzero;stroke:none"
             d="m 0,0 c -0.008,0.307 -8.491,-1.319 -8.722,-5.1 0.042,-3.327 4.206,-5.494 3.177,-10.013 2.709,0.547 4.493,2.919 5.134,5.043 C 0.406,-7.965 -3.86,-2.459 0,0" /></g><g
           transform="translate(175.7831,255.4122)"
           id="g40"><path
             id="path42"
             style="fill:#231f20;fill-opacity:1;fill-rule:nonzero;stroke:none"
             d="m 0,0 c -0.036,0.09 -4.449,-0.436 -4.446,-2.196 0.087,-2.271 1.623,-6.002 0.097,-9.034 C -2.575,-10.833 -0.008,-7.083 0,0" /></g><g
           transform="translate(156.4618,222.5528)"
           id="g44"><path
             id="path46"
             style="fill:#231f20;fill-opacity:1;fill-rule:nonzero;stroke:none"
             d="M 0,0 C -0.051,-0.002 -0.707,2.398 -2.765,2.498 -5.601,2.759 -10.942,0.417 -14.201,3.011 -14.779,-0.854 -9.333,-2.777 0,0" /></g><g
           transform="translate(180.332,259.338)"
           id="g48"><path
             id="path50"
             style="fill:#231f20;fill-opacity:1;fill-rule:nonzero;stroke:none"
             d="M 0,0 C -1.564,0.717 -1.961,1.978 -0.313,3.527 L 6.196,9.65 C 6.588,10.018 7.367,10.063 7.975,9.785 8.582,9.506 8.882,8.967 8.62,8.54 L 4.261,1.432 C 3.158,-0.367 1.564,-0.716 0,0" /></g><g
           transform="translate(182.5722,250.3555)"
           id="g52"><path
             id="path54"
             style="fill:#231f20;fill-opacity:1;fill-rule:nonzero;stroke:none"
             d="m 0,0 c -0.194,-1.709 0.682,-2.701 2.858,-2.09 l 8.606,2.412 c 0.516,0.145 0.958,0.79 1.033,1.454 0.076,0.663 -0.231,1.199 -0.732,1.195 L 3.427,2.909 C 1.317,2.894 0.194,1.709 0,0" /></g><g
           transform="translate(178.0185,241.5899)"
           id="g56"><path
             id="path58"
             style="fill:#231f20;fill-opacity:1;fill-rule:nonzero;stroke:none"
             d="m 0,0 c -1.259,-1.173 -1.237,-2.495 0.813,-3.446 l 8.108,-3.761 c 0.487,-0.226 1.241,-0.022 1.73,0.433 0.489,0.455 0.603,1.062 0.22,1.384 L 4.495,-0.016 C 2.882,1.343 1.259,1.173 0,0" /></g><g
           transform="translate(170.4511,261.9068)"
           id="g60"><path
             id="path62"
             style="fill:#231f20;fill-opacity:1;fill-rule:nonzero;stroke:none"
             d="m 0,0 c -1.598,-0.638 -2.784,-0.054 -2.769,2.207 l 0.061,8.937 c 0.004,0.537 0.51,1.132 1.13,1.379 0.62,0.248 1.218,0.093 1.347,-0.392 L 1.904,4.071 C 2.445,2.032 1.599,0.638 0,0" /></g><g
           transform="translate(202.5497,108.71)"
           id="g64"><path
             id="path66"
             style="fill:#231f20;fill-opacity:1;fill-rule:nonzero;stroke:none"
             d="m 0,0 -12.945,-12.945 -36.927,-36.928 c -1.384,-1.383 -3.628,-1.383 -5.011,0 L -91.811,-12.945 -104.756,0 c -9.184,9.185 -9.184,24.075 0,33.26 l 6.173,6.173 c 9.185,9.184 24.076,9.184 33.26,0 l 11.265,-11.265 c 0.928,-0.928 2.432,-0.928 3.36,0 l 11.265,11.265 c 9.184,9.184 24.076,9.184 33.26,0 L 0,33.26 C 9.185,24.075 9.185,9.185 0,0 m -52.378,88.844 c -49.337,0 -89.333,-38.603 -89.333,-86.222 0,-47.619 39.996,-86.223 89.333,-86.223 49.338,0 89.333,38.604 89.333,86.223 0,47.619 -39.995,86.222 -89.333,86.222" /></g></g></g></g></svg>