<?xml version="1.0" encoding="UTF-8" standalone="no"?>
<svg
   xmlns:dc="http://purl.org/dc/elements/1.1/"
   xmlns:cc="http://creativecommons.org/ns#"
   xmlns:rdf="http://www.w3.org/1999/02/22-rdf-syntax-ns#"
   xmlns:svg="http://www.w3.org/2000/svg"
   xmlns="http://www.w3.org/2000/svg"
   viewBox="0 0 400 400"
   height="400"
   width="400"
   xml:space="preserve"
   id="svg2"
   version="1.1"><metadata
     id="metadata8"><rdf:RDF><cc:Work
         rdf:about=""><dc:format>image/svg+xml</dc:format><dc:type
           rdf:resource="http://purl.org/dc/dcmitype/StillImage" /></cc:Work></rdf:RDF></metadata><defs
     id="defs6"><clipPath
       id="clipPath18"
       clipPathUnits="userSpaceOnUse"><path
         id="path16"
         d="M 0,0 H 300 V 300 H 0 Z" /></clipPath></defs><g
     transform="matrix(1.3333333,0,0,-1.3333333,0,400)"
     id="g10"><g
       id="g12"><g
         clip-path="url(#clipPath18)"
         id="g14"><g
           transform="translate(204.3643,187.4761)"
           id="g20"><path
             id="path22"
             style="fill:#231f20;fill-opacity:1;fill-rule:nonzero;stroke:none"
             d="m 0,0 c -12.039,-0.728 -25.898,-4.381 -70.414,-36.857 l -52.184,54.733 c 0,0 22.039,27.063 43.41,52.865 13.063,-3.791 30.053,-12.286 55.539,-40.603 -12.136,23.463 -36.388,41.695 -49.204,48.237 2.828,3.41 5.607,6.735 8.277,9.927 C -21.529,67.5 -2.913,18.969 0,0" /></g><g
           transform="translate(76.7319,201.4507)"
           id="g24"><path
             id="path26"
             style="fill:#231f20;fill-opacity:1;fill-rule:nonzero;stroke:none"
             d="m 0,0 c 0,0 -14.595,-5.838 -16.784,-28.46 13.5,-12.041 21.892,-15.325 25.541,-18.973 3.497,-3.497 94.794,-95.13 124.873,-127.806 2.192,-2.381 5.827,-2.649 8.39,-0.675 15.273,11.768 19.891,31.075 21.255,40.204 0.389,2.603 -1.763,4.877 -4.385,4.642 l -16.772,-1.508 c -6.814,-0.612 -13.544,1.86 -18.341,6.737 z" /></g></g></g></g></svg>