<?xml version="1.0" encoding="UTF-8" standalone="no"?>
<svg
   xmlns:dc="http://purl.org/dc/elements/1.1/"
   xmlns:cc="http://creativecommons.org/ns#"
   xmlns:rdf="http://www.w3.org/1999/02/22-rdf-syntax-ns#"
   xmlns:svg="http://www.w3.org/2000/svg"
   xmlns="http://www.w3.org/2000/svg"
   viewBox="0 0 400 400"
   height="400"
   width="400"
   xml:space="preserve"
   id="svg2"
   version="1.1"><metadata
     id="metadata8"><rdf:RDF><cc:Work
         rdf:about=""><dc:format>image/svg+xml</dc:format><dc:type
           rdf:resource="http://purl.org/dc/dcmitype/StillImage" /></cc:Work></rdf:RDF></metadata><defs
     id="defs6"><clipPath
       id="clipPath18"
       clipPathUnits="userSpaceOnUse"><path
         id="path16"
         d="M 0,0 H 300 V 300 H 0 Z" /></clipPath></defs><g
     transform="matrix(1.3333333,0,0,-1.3333333,0,400)"
     id="g10"><g
       id="g12"><g
         clip-path="url(#clipPath18)"
         id="g14"><g
           transform="translate(113.5405,69.8301)"
           id="g20"><path
             id="path22"
             style="fill:#231f20;fill-opacity:1;fill-rule:nonzero;stroke:none"
             d="m 0,0 c 4.86,0 8.86,-3.73 9.29,-8.48 l 9.18,-5.3 c 0.35,1.42 0.53,2.91 0.53,4.44 0,10.5 -8.51,19 -19,19 -10.5,0 -19,-8.5 -19,-19 0,-10.49 8.5,-19 19,-19 4.48,0 8.6,1.55 11.84,4.15 l -9.55,5.51 c -0.12,0.07 -0.24,0.14 -0.35,0.21 -0.63,-0.13 -1.28,-0.2 -1.94,-0.2 -5.16,0 -9.34,4.18 -9.34,9.33 C -9.34,-4.18 -5.16,0 0,0" /></g><g
           transform="translate(245.3906,112.5898)"
           id="g24"><path
             id="path26"
             style="fill:#231f20;fill-opacity:1;fill-rule:nonzero;stroke:none"
             d="m 0,0 -1.229,-2.37 c -0.541,-1.029 -1.591,-1.62 -2.67,-1.62 -0.471,0 -0.941,0.11 -1.381,0.341 L -18.149,3.03 c -0.341,0.18 -0.621,0.42 -0.861,0.69 l 2.62,-1.51 c 0.65,-0.37 1.36,-0.55 2.07,-0.55 1.44,0 2.85,0.74 3.62,2.08 1.14,1.98 0.46,4.54 -1.529,5.69 l -2.701,1.56 c 0.27,-0.06 0.531,-0.13 0.781,-0.26 L -1.28,4.04 C 0.18,3.28 0.76,1.46 0,0 m -34.24,21.47 c -1.43,0 -2.83,-0.74 -3.6,-2.07 -0.9,-1.549 -0.66,-3.45 0.441,-4.759 -0.58,0.089 -1.131,0.339 -1.591,0.75 l -8.05,7.369 c 0.05,-0.01 0.11,-0.01 0.17,-0.01 0.84,0 1.681,0.24 2.41,0.76 1.86,1.341 2.29,3.96 0.95,5.82 l -2.16,3.01 c 0.66,-0.05 1.3,-0.29 1.82,-0.77 l 10.71,-9.78 c 0.21,-0.189 0.37,-0.41 0.51,-0.649 -0.519,0.219 -1.07,0.329 -1.61,0.329 m -26.1,28.26 c -0.84,0 -1.68,-0.25 -2.41,-0.77 -1.86,-1.34 -2.28,-3.95 -0.95,-5.82 l 0.85,-1.18 c -0.62,0.26 -1.17,0.73 -1.5,1.37 l -5.76,11.17 c 0.76,-0.68 1.75,-1.1 2.81,-1.1 0.22,0 0.46,0.02 0.69,0.06 2.26,0.39 3.79,2.56 3.4,4.82 l -0.42,2.43 c 0.13,-0.15 0.24,-0.33 0.34,-0.52 l 6.16,-11.96 c -0.809,0.98 -2.01,1.5 -3.21,1.5 m -11.59,34.61 c -1.63,-0.28 -2.87,-1.49 -3.29,-2.99 l -0.83,12.67 v 0.05 l 0.08,-0.32 c 0.45,-1.91 2.17,-3.2 4.05,-3.2 0.32,0 0.65,0.04 0.97,0.12 2.23,0.53 3.61,2.79 3.08,5.02 l -0.109,0.46 c 0.319,-0.44 0.54,-0.98 0.58,-1.56 l 0.949,-14.47 c 0.03,-0.51 -0.08,-0.99 -0.279,-1.42 l -0.381,2.24 c -0.35,2.03 -2.119,3.46 -4.11,3.46 -0.24,0 -0.469,-0.02 -0.71,-0.06 M 4.601,8.5 -14.33,18.33 c -0.95,0.5 -1.97,0.731 -2.97,0.731 -2.32,0 -4.56,-1.241 -5.73,-3.391 l -1.909,1.101 c 1.329,2.549 0.849,5.779 -1.371,7.809 l -15.75,14.39 c -1.24,1.13 -2.8,1.69 -4.37,1.69 -1.48,0 -2.96,-0.5 -4.15,-1.49 l -0.3,0.42 c 2.27,1.91 3.02,5.21 1.61,7.95 l -9.77,18.97 c -1.149,2.23 -3.439,3.51 -5.8,3.51 -0.13,0 -0.26,0 -0.389,-0.01 l -0.091,0.51 c 3.4,0.41 5.95,3.42 5.73,6.88 l -1.4,21.28 c -0.1,1.42 -0.65,2.7 -1.5,3.72 -6.21,-1.05 -13.21,-2.46 -20.449,-4.73 0,-0.14 -0.011,-0.28 -0.011,-0.43 l 1.4,-21.28 c 0.23,-3.43 3.1,-6.08 6.49,-6.08 0.14,0 0.28,0.01 0.42,0.02 l 0.96,0.06 0.58,-3.38 -2.7,-1.39 c -3.179,-1.64 -4.44,-5.58 -2.8,-8.76 l 9.77,-18.96 c 1.15,-2.24 3.44,-3.52 5.8,-3.52 1,0 2.01,0.23 2.95,0.72 l 1.81,0.92 1.9,-2.65 -0.94,-1.03 c -2.41,-2.639 -2.23,-6.769 0.411,-9.18 l 15.75,-14.39 c 1.239,-1.14 2.809,-1.699 4.379,-1.699 1.77,0 3.53,0.71 4.8,2.109 l 1.47,1.61 3.62,-2.089 -0.36,-0.701 c -1.65,-3.17 -0.409,-7.11 2.77,-8.759 l 18.93,-9.841 c 0.95,-0.49 1.97,-0.72 2.98,-0.72 2.35,0 4.63,1.271 5.78,3.5 l 4.15,7.98 C 9.021,2.9 7.771,6.851 4.601,8.5" /></g><g
           transform="translate(168.501,233.8198)"
           id="g28"><path
             id="path30"
             style="fill:#231f20;fill-opacity:1;fill-rule:nonzero;stroke:none"
             d="m 0,0 1.8,-3.12 c -1.85,0.21 -3.74,0.37 -5.66,0.48 -0.13,0.01 -0.27,0.02 -0.4,0.03 0.05,0.12 0.11,0.25 0.17,0.36 0.54,1.04 1.5,1.86 2.72,2.16 0.33,0.08 0.649,0.11 0.97,0.11 0.129,0 0.27,-0.01 0.4,-0.02" /></g><g
           transform="translate(162.1807,231.4399)"
           id="g32"><path
             id="path34"
             style="fill:#231f20;fill-opacity:1;fill-rule:nonzero;stroke:none"
             d="M 0,0 -0.06,-0.15 H 0.08 Z" /></g><g
           transform="translate(162.1807,231.4399)"
           id="g36"><path
             id="path38"
             style="fill:#231f20;fill-opacity:1;fill-rule:nonzero;stroke:none"
             d="M 0,0 -0.06,-0.15 H 0.08 Z" /></g><g
           transform="translate(139.5405,252.7598)"
           id="g40"><path
             id="path42"
             style="fill:#231f20;fill-opacity:1;fill-rule:nonzero;stroke:none"
             d="m 0,0 1.61,-1.29 h -0.1 c -0.33,0 -0.67,0.05 -1,0.17 l -12.06,4.32 0.91,0.19 c 2.24,0.48 3.69,2.7 3.21,4.95 -0.42,1.95 -2.16,3.29 -4.08,3.29 -0.29,0 -0.58,-0.03 -0.87,-0.09 l -0.78,-0.17 c 0.54,0.46 1.24,0.72 1.95,0.72 0.33,0 0.67,-0.05 0.99,-0.17 L 2.43,7.39 C 1.27,7.35 0.13,6.83 -0.65,5.86 -2.08,4.07 -1.79,1.43 0,0 m -32.16,-1.74 -11.52,-8.8 c -0.1,-0.08 -0.21,-0.13 -0.32,-0.2 l 1.32,1.33 c 1.63,1.62 1.63,4.27 0,5.89 -0.81,0.81 -1.87,1.21 -2.94,1.21 -1.07,0 -2.14,-0.4 -2.95,-1.21 l -1.26,-1.27 c 0.19,0.43 0.48,0.83 0.88,1.13 l 11.52,8.81 c 0.07,0.05 0.14,0.08 0.21,0.12 -0.76,-0.94 -1.13,-2.2 -0.86,-3.47 0.42,-1.95 2.16,-3.3 4.08,-3.3 0.29,0 0.58,0.03 0.87,0.09 l 1.59,0.34 c -0.17,-0.25 -0.37,-0.48 -0.62,-0.67 m -24.58,-22.21 -3.23,-13 c -0.25,2.07 -1.99,3.68 -4.12,3.68 -2.29,0 -4.16,-1.87 -4.16,-4.16 v -0.84 c -0.43,0.67 -0.6,1.51 -0.4,2.34 l 2.9,11.65 c 0.2,-0.51 0.51,-0.99 0.92,-1.4 0.81,-0.81 1.88,-1.21 2.94,-1.21 1.07,0 2.14,0.4 2.95,1.21 l 2.28,2.28 c -0.01,-0.18 -0.03,-0.37 -0.08,-0.55 m 96.85,3.05 -10.69,18.46 c -1.2,2.07 -3.39,3.24 -5.64,3.24 -1.11,0 -2.22,-0.28 -3.239,-0.87 l -4.13,-2.39 -4.75,3.8 0.929,2.59 c 1.21,3.37 -0.56,7.11 -3.93,8.32 l -20.08,7.18 c -0.72,0.26 -1.45,0.38 -2.18,0.38 -2.67,0 -5.18,-1.66 -6.13,-4.3 l -2.15,-6 -5.77,-1.23 -2.2,2.87 c -1.27,1.67 -3.21,2.54 -5.17,2.55 -1.38,0 -2.77,-0.44 -3.94,-1.33 L -55.91,-0.59 c -2.84,-2.17 -3.39,-6.27 -1.22,-9.11 l 1.04,-1.35 -2.49,-2.48 -4.4,1.09 c -0.52,0.13 -1.04,0.19 -1.56,0.19 -2.91,0 -5.58,-1.98 -6.31,-4.93 L -76,-37.88 c -0.87,-3.47 1.27,-7.01 4.74,-7.88 l 3.01,-0.75 v -6.26 l -1.97,-0.48 c -3.47,-0.85 -5.61,-4.39 -4.76,-7.86 l 1.74,-7.07 c 4.99,6.45 10.21,12.03 15.53,16.85 -0.7,0.26 -1.45,0.4 -2.21,0.4 v 2.9 c 2.49,0.41 4.62,2.25 5.27,4.84 l 5.15,20.7 c 0.34,1.38 0.2,2.77 -0.29,3.99 1.01,-0.59 2.15,-0.89 3.31,-0.89 1.38,0 2.76,0.43 3.93,1.32 l 16.95,12.96 c 1.86,1.42 2.73,3.66 2.51,5.84 l 1.21,0.26 c 0.74,-1.01 1.78,-1.82 3.04,-2.27 L 1.25,-8.47 c 0.72,-0.25 1.45,-0.38 2.17,-0.38 1.86,0 3.65,0.81 4.88,2.2 l 1.62,-1.29 c -0.65,-1.76 -0.54,-3.78 0.46,-5.52 l 4.64,-8.02 c 1.45,0.06 2.811,0.08 4.08,0.08 1.16,0 2.33,-0.03 3.481,-0.07 l 0.059,0.15 -3.7,6.38 c 0.52,-0.22 1.08,-0.33 1.63,-0.33 1.221,0 2.42,0.53 3.24,1.55 1.43,1.78 1.141,4.42 -0.649,5.85 l -0.491,0.39 c 0.08,0.01 0.15,0.01 0.22,0.01 1.03,0 2.05,-0.53 2.6,-1.48 l 4.75,-8.2 0.801,-1.4 1.709,-2.95 c 0.161,-0.27 0.25,-0.56 0.32,-0.85 0.221,-0.03 0.44,-0.06 0.66,-0.1 0.36,-0.05 0.71,-0.1 1.061,-0.16 2.139,-0.33 4.209,-0.73 6.179,-1.2 -0.05,1 -0.33,1.99 -0.86,2.91" /></g><g
           transform="translate(164.4111,231.5698)"
           id="g44"><path
             id="path46"
             style="fill:#231f20;fill-opacity:1;fill-rule:nonzero;stroke:none"
             d="M 0,0 C -0.061,-0.11 -0.12,-0.24 -0.17,-0.36 -0.04,-0.37 0.1,-0.38 0.229,-0.39 Z" /></g><g
           transform="translate(187.2803,89.2998)"
           id="g48"><path
             id="path50"
             style="fill:#231f20;fill-opacity:1;fill-rule:nonzero;stroke:none"
             d="m 0,0 c -0.38,0.11 -0.76,0.16 -1.14,0.16 -1.809,0 -3.49,-1.19 -4.009,-3.01 L -5.859,-5.31 -10,5.75 c 0.7,-1.52 2.221,-2.43 3.801,-2.43 0.58,0 1.16,0.12 1.72,0.38 2.089,0.95 3.009,3.43 2.059,5.52 l -1.069,2.341 c 0.479,-0.341 0.87,-0.821 1.09,-1.411 L 1.82,-1.109 C 1.33,-0.609 0.721,-0.21 0,0 m -9.02,-41.16 c -0.459,-1.17 -1.599,-1.89 -2.799,-1.89 -0.031,0 -0.061,0 -0.09,0.01 l 1.38,0.79 c 1.979,1.15 2.67,3.71 1.519,5.69 -0.769,1.34 -2.179,2.081 -3.62,2.081 -0.699,0 -1.42,-0.181 -2.069,-0.551 l -1.58,-0.909 4.49,11.449 c 0.17,0.41 0.42,0.77 0.72,1.06 l -0.441,-1.53 c -0.63,-2.2 0.651,-4.519 2.861,-5.149 0.37,-0.111 0.75,-0.161 1.129,-0.161 1.451,0 2.81,0.77 3.56,2.01 z m -27.12,-11.06 c 0.67,-1.17 1.83,-1.87 3.08,-2.03 -0.24,-0.06 -0.479,-0.09 -0.719,-0.09 -0.311,0 -0.63,0.05 -0.95,0.16 l -13.71,4.72 c -0.701,0.24 -1.241,0.731 -1.59,1.32 0.509,-0.21 1.05,-0.31 1.59,-0.31 1.43,0 2.83,0.73 3.6,2.06 0.98,1.71 0.61,3.83 -0.781,5.13 l 12.61,-4.34 -1.609,-0.93 c -1.981,-1.15 -2.671,-3.71 -1.521,-5.69 m 20.33,84.781 c -0.57,0 -1.15,-0.121 -1.7,-0.371 -2.08,-0.95 -3.01,-3.44 -2.05,-5.52 l 0.021,-0.06 c -0.101,0.071 -0.211,0.13 -0.301,0.21 l -11.199,9.21 c -0.471,0.39 -0.79,0.89 -0.95,1.43 l 0.439,-0.14 c 0.42,-0.13 0.84,-0.19 1.261,-0.19 0.88,0 1.739,0.28 2.439,0.79 0.701,0.5 1.26,1.221 1.54,2.11 0.361,1.13 0.201,2.3 -0.33,3.26 0.39,-0.109 0.771,-0.29 1.111,-0.57 l 11.2,-9.21 c 0.559,-0.47 0.899,-1.11 1.019,-1.78 -0.719,0.53 -1.599,0.831 -2.5,0.831 M -50.939,52.23 c -0.42,0.13 -0.84,0.201 -1.25,0.201 -1.77,0 -3.42,-1.141 -3.98,-2.91 -0.701,-2.181 0.52,-4.541 2.699,-5.231 l 1.381,-0.439 h -0.17 c -0.031,0 -0.06,0 -0.091,0.009 l -14.409,1.62 c -0.401,0.041 -0.761,0.161 -1.091,0.34 1.391,0.4 2.551,1.5 2.911,3 0.509,2.08 -0.681,4.18 -2.661,4.89 0.44,0.25 0.951,0.4 1.48,0.4 0.111,0 0.21,-0.009 0.321,-0.02 l 14.409,-1.62 c 0.511,-0.06 0.971,-0.25 1.37,-0.53 z M 10.211,-4.52 2.74,15.46 c -0.979,2.601 -3.469,4.221 -6.109,4.221 -0.75,0 -1.521,-0.141 -2.261,-0.421 l -1.18,-0.44 -2.299,5.031 2.729,3.319 c 2.271,2.761 1.87,6.88 -0.89,9.15 l -16.469,13.56 c -1.2,0.99 -2.66,1.48 -4.12,1.48 -1.88,0 -3.75,-0.81 -5.031,-2.37 l -1.63,-1.98 -7,2.23 0.261,2.26 c 0.389,3.55 -2.191,6.78 -5.741,7.181 l -21.2,2.389 c -0.239,0.02 -0.48,0.04 -0.719,0.04 -3.161,0 -5.9,-2.32 -6.411,-5.469 l -2.19,0.529 c -0.25,0.92 -0.689,1.79 -1.339,2.55 l -3.051,3.53 c -1.48,-5.84 -2.159,-11.41 -2.23,-16.67 l 3.281,2.83 4.569,-1.12 -0.1,-0.899 c -0.4,-3.551 2.181,-6.79 5.73,-7.191 l 21.201,-2.38 c 0.25,-0.03 0.489,-0.04 0.73,-0.04 2.669,0 5.049,1.66 6.029,4.09 l 2.941,-0.939 c -0.801,-2.471 -0.08,-5.29 2.039,-7.031 l 16.47,-13.56 c 1.2,-0.989 2.66,-1.47 4.11,-1.47 0.51,0 1.021,0.061 1.521,0.18 l 1,-2.19 c -2.971,-1.44 -4.431,-4.96 -3.25,-8.12 l 7.479,-19.98 c 0.39,-1.03 1.01,-1.909 1.79,-2.59 l -0.139,-0.489 c -0.67,0.219 -1.361,0.329 -2.04,0.329 -2.59,0 -5.05,-1.57 -6.061,-4.119 l -7.79,-19.861 c -0.26,-0.67 -0.399,-1.36 -0.43,-2.04 l -0.46,-0.27 c -0.379,0.23 -0.79,0.421 -1.219,0.57 l -20.171,6.94 c -0.699,0.24 -1.409,0.36 -2.099,0.36 -2.08,0 -4.071,-1.01 -5.29,-2.71 l -1.551,0.9 -8.67,5 -1.77,1.02 c -0.649,0.381 -1.359,0.56 -2.069,0.56 -1.44,0 -2.85,-0.75 -3.62,-2.08 -1.141,-1.99 -0.46,-4.55 1.529,-5.7 l 1.1,-0.63 9.02,-5.21 3.02,-1.74 -0.799,-2.31 c -1.161,-3.379 0.65,-7.089 4.029,-8.259 l 20.171,-6.941 c 0.699,-0.24 1.409,-0.36 2.109,-0.36 2.7,0 5.231,1.7 6.16,4.391 l 2.79,8.12 2.79,1.609 7.481,-2.93 c 0.779,-0.299 1.579,-0.45 2.359,-0.45 2.601,0 5.071,1.57 6.071,4.13 l 7.79,19.851 c 1.309,3.33 -0.351,7.119 -3.67,8.429 l -0.91,0.361 0.879,3.049 6.47,2.42 c 3.34,1.25 5.061,5.02 3.801,8.37" /></g><g
           transform="translate(108.3706,172.6602)"
           id="g52"><path
             id="path54"
             style="fill:#231f20;fill-opacity:1;fill-rule:nonzero;stroke:none"
             d="m 0,0 c -22.71,-42.174 -1.786,-75.894 5.43,-85.541 0.668,-0.894 0.13,-2.201 -0.978,-2.332 -10.574,-1.252 -19.284,-8.642 -22.471,-18.5 -0.312,-0.966 -1.473,-1.35 -2.282,-0.735 -4.988,3.788 -16.032,13.242 -24.079,27.828 -1.73,-2.4 -3.47,-5.46 -4.75,-9.25 -0.27,-0.79 -1.42,-0.72 -1.57,0.1 -1.6,8.84 -1.76,19.62 -1.31,29.751 -0.123,0.061 -0.05,0.025 -0.173,0.085 -2.19,-1.949 -4.518,-4.538 -6.577,-7.896 -0.44,-0.72 -1.55,-0.39 -1.51,0.44 0.48,10.97 3.69,24.279 7.11,35.67 -2.31,-1.181 -4.84,-2.82 -7.34,-5.05 -0.66,-0.58 -1.608,0.107 -1.3,0.92 C -24.667,63.333 57.333,59 80.331,48.33 59,45 21,39 0,0" /></g></g></g></g></svg>