<?xml version="1.0" encoding="UTF-8" standalone="no"?>
<svg
   xmlns:dc="http://purl.org/dc/elements/1.1/"
   xmlns:cc="http://creativecommons.org/ns#"
   xmlns:rdf="http://www.w3.org/1999/02/22-rdf-syntax-ns#"
   xmlns:svg="http://www.w3.org/2000/svg"
   xmlns="http://www.w3.org/2000/svg"
   viewBox="0 0 400 400"
   height="400"
   width="400"
   xml:space="preserve"
   id="svg2"
   version="1.1"><metadata
     id="metadata8"><rdf:RDF><cc:Work
         rdf:about=""><dc:format>image/svg+xml</dc:format><dc:type
           rdf:resource="http://purl.org/dc/dcmitype/StillImage" /></cc:Work></rdf:RDF></metadata><defs
     id="defs6"><clipPath
       id="clipPath18"
       clipPathUnits="userSpaceOnUse"><path
         id="path16"
         d="M 0,0 H 300 V 300 H 0 Z" /></clipPath></defs><g
     transform="matrix(1.3333333,0,0,-1.3333333,0,400)"
     id="g10"><g
       id="g12"><g
         clip-path="url(#clipPath18)"
         id="g14"><g
           transform="translate(94.1895,220.585)"
           id="g20"><path
             id="path22"
             style="fill:#000000;fill-opacity:1;fill-rule:nonzero;stroke:none"
             d="m 0,0 176.846,-181.701 c 2.675,-2.75 2.646,-7.14 -0.067,-9.853 -2.713,-2.713 -7.102,-2.742 -9.852,-0.066 L -14.774,-14.774 c -0.347,0.337 -0.275,0.903 0.14,1.152 2.697,1.619 5.242,3.593 7.565,5.916 2.324,2.324 4.298,4.868 5.917,7.566 C -0.903,0.274 -0.337,0.347 0,0" /></g><g
           transform="translate(90.1367,202.1064)"
           id="g24"><path
             id="path26"
             style="fill:#000000;fill-opacity:1;fill-rule:nonzero;stroke:none"
             d="m 0,0 c 0,0 -19.689,2.69 -42.125,-15.062 -0.91,-0.72 -0.136,-2.171 0.971,-1.822 21.303,6.72 51.964,6.195 51.964,6.195 z" /></g><g
           transform="translate(104.2163,198.1694)"
           id="g28"><path
             id="path30"
             style="fill:#000000;fill-opacity:1;fill-rule:nonzero;stroke:none"
             d="m 0,0 c 0,0 -19.864,0.588 -40.291,-19.441 -0.829,-0.813 0.095,-2.174 1.158,-1.71 20.471,8.941 51.015,11.668 51.015,11.668 z" /></g><g
           transform="translate(90.1367,202.1064)"
           id="g32"><path
             id="path34"
             style="fill:#000000;fill-opacity:1;fill-rule:nonzero;stroke:none"
             d="m 0,0 c 0,0 -19.689,2.69 -42.125,-15.062 -0.91,-0.72 -0.136,-2.171 0.971,-1.822 21.303,6.72 51.964,6.195 51.964,6.195 z" /></g><g
           transform="translate(104.2163,198.1694)"
           id="g36"><path
             id="path38"
             style="fill:#000000;fill-opacity:1;fill-rule:nonzero;stroke:none"
             d="m 0,0 c 0,0 -19.864,0.588 -40.291,-19.441 -0.829,-0.813 0.095,-2.174 1.158,-1.71 20.471,8.941 51.015,11.668 51.015,11.668 z" /></g><g
           transform="translate(97.8936,209.8633)"
           id="g40"><path
             id="path42"
             style="fill:#000000;fill-opacity:1;fill-rule:nonzero;stroke:none"
             d="m 0,0 c 0,0 -2.69,19.689 15.062,42.125 0.72,0.91 2.171,0.136 1.822,-0.971 -6.72,-21.303 -6.195,-51.964 -6.195,-51.964 z" /></g><g
           transform="translate(101.8306,195.7837)"
           id="g44"><path
             id="path46"
             style="fill:#000000;fill-opacity:1;fill-rule:nonzero;stroke:none"
             d="m 0,0 c 0,0 -0.588,19.864 19.441,40.291 0.813,0.829 2.174,-0.095 1.71,-1.158 C 12.21,18.662 9.483,-11.882 9.483,-11.882 Z" /></g><g
           transform="translate(122.8623,197.4067)"
           id="g48"><path
             id="path50"
             style="fill:#000000;fill-opacity:1;fill-rule:nonzero;stroke:none"
             d="m 0,0 2.096,-22.365 -22.365,2.096 c -1.867,0.175 -3.523,1.831 -3.698,3.698 L -26.062,5.793 -3.698,3.698 C -1.831,3.523 -0.175,1.867 0,0" /></g><g
           transform="translate(131.6382,186.9824)"
           id="g52"><path
             id="path54"
             style="fill:#000000;fill-opacity:1;fill-rule:nonzero;stroke:none"
             d="m 0,0 1.925,-20.546 -20.546,1.925 c -1.867,0.176 -3.523,1.831 -3.697,3.698 L -24.244,5.623 -3.698,3.698 C -1.831,3.523 -0.175,1.867 0,0" /></g><g
           transform="translate(138.9438,177.791)"
           id="g56"><path
             id="path58"
             style="fill:#000000;fill-opacity:1;fill-rule:nonzero;stroke:none"
             d="m 0,0 1.73,-18.465 -18.465,1.73 c -1.867,0.175 -3.522,1.831 -3.698,3.698 l -1.73,18.465 18.465,-1.73 C -1.831,3.522 -0.175,1.867 0,0" /></g><g
           transform="translate(83.6465,246.5234)"
           id="g60"><path
             id="path62"
             style="fill:#000000;fill-opacity:1;fill-rule:nonzero;stroke:none"
             d="m 0,0 c -1.178,-1.179 -2.828,7.542 -11.078,11.549 -8.25,4.007 -12.492,2.121 -12.492,4.479 0,3.431 9.251,3.123 15.615,-2.299 C -1.591,8.309 1.179,1.178 0,0 m -47.199,17.029 c -12.627,-12.627 -12.627,-33.099 0,-45.726 12.627,-12.627 33.099,-12.627 45.726,0 12.627,12.627 12.627,33.099 0,45.726 -12.627,12.627 -33.099,12.627 -45.726,0" /></g></g></g></g></svg>