<?xml version="1.0" encoding="UTF-8" standalone="no"?>
<svg
   xmlns:dc="http://purl.org/dc/elements/1.1/"
   xmlns:cc="http://creativecommons.org/ns#"
   xmlns:rdf="http://www.w3.org/1999/02/22-rdf-syntax-ns#"
   xmlns:svg="http://www.w3.org/2000/svg"
   xmlns="http://www.w3.org/2000/svg"
   viewBox="0 0 800 800"
   height="800"
   width="800"
   xml:space="preserve"
   id="svg2"
   version="1.1"><metadata
     id="metadata8"><rdf:RDF><cc:Work
         rdf:about=""><dc:format>image/svg+xml</dc:format><dc:type
           rdf:resource="http://purl.org/dc/dcmitype/StillImage" /></cc:Work></rdf:RDF></metadata><defs
     id="defs6"><clipPath
       id="clipPath18"
       clipPathUnits="userSpaceOnUse"><path
         id="path16"
         d="M 0,600 H 600 V 0 H 0 Z" /></clipPath></defs><g
     transform="matrix(1.3333333,0,0,-1.3333333,0,800)"
     id="g10"><g
       id="g12"><g
         clip-path="url(#clipPath18)"
         id="g14"><g
           transform="translate(514.4313,137.5742)"
           id="g20"><path
             id="path22"
             style="fill:#100f0d;fill-opacity:1;fill-rule:nonzero;stroke:none"
             d="m 0,0 c -87.35,-85.018 -193.324,-73.369 -193.324,-73.369 0,0 0,5.819 -3.488,16.302 -22.131,4.664 -75.701,1.166 -81.52,1.166 -5.829,0 -17.469,-18.634 -20.966,-24.453 -15.137,0 -103.652,25.619 -117.622,43.086 -6.985,22.132 15.136,152.559 27.95,211.958 -62.886,168.861 -32.604,217.768 -32.604,217.768 64.043,20.965 101.31,12.814 138.579,-1.166 37.267,-13.97 80.354,-5.819 83.851,-9.307 1.446,-1.445 -3.13,-32.874 -8.979,-70.682 -0.202,-1.281 -0.395,-2.563 -0.598,-3.854 -0.953,-6.108 -1.907,-12.342 -2.881,-18.634 -0.202,-1.281 -0.404,-2.563 -0.616,-3.854 -0.964,-6.108 -1.927,-12.245 -2.881,-18.306 -0.173,-1.156 -0.356,-2.312 -0.539,-3.459 -0.973,-6.34 -1.956,-12.583 -2.881,-18.634 -0.221,-1.425 -0.433,-2.842 -0.655,-4.249 -0.964,-6.378 -1.898,-12.515 -2.756,-18.296 -0.269,-1.84 -0.54,-3.642 -0.79,-5.405 -1.002,-6.918 -1.859,-13.21 -2.553,-18.634 -0.096,-0.79 -0.203,-1.551 -0.29,-2.303 -0.972,-7.689 -1.531,-13.383 -1.531,-16.331 0,-0.616 0.038,-1.272 0.125,-1.966 0.125,-1.185 0.376,-2.476 0.733,-3.854 1.358,-5.154 4.124,-11.552 7.785,-18.633 0.655,-1.262 1.339,-2.553 2.052,-3.854 15.647,-28.808 43.385,-66.23 47.529,-75.345 74.535,1.165 111.803,-17.468 111.803,-17.468 l 33.77,6.995 C -23.297,65.219 -1.166,50.073 0,0" /></g><g
           transform="translate(306.3082,448.8774)"
           id="g24"><path
             id="path26"
             style="fill:#ffffff;fill-opacity:1;fill-rule:nonzero;stroke:none"
             d="m 0,0 c -0.202,-1.281 -0.395,-2.563 -0.598,-3.854 -0.953,-6.108 -1.907,-12.342 -2.881,-18.634 -0.202,-1.281 -0.404,-2.563 -0.616,-3.854 h -84.748 c -7.264,0 -13.171,5.906 -13.171,13.171 0,7.265 5.907,13.171 13.171,13.171 z" /></g><g
           transform="translate(299.3326,404.2295)"
           id="g28"><path
             id="path30"
             style="fill:#ffffff;fill-opacity:1;fill-rule:nonzero;stroke:none"
             d="m 0,0 c -0.174,-1.156 -0.356,-2.313 -0.539,-3.459 -0.974,-6.34 -1.956,-12.583 -2.881,-18.634 -0.222,-1.426 -0.434,-2.842 -0.655,-4.249 h -77.792 c -7.265,0 -13.171,5.916 -13.171,13.171 0,7.265 5.906,13.171 13.171,13.171 z" /></g><g
           transform="translate(292.5016,359.5913)"
           id="g32"><path
             id="path34"
             style="fill:#ffffff;fill-opacity:1;fill-rule:nonzero;stroke:none"
             d="m 0,0 c -0.27,-1.84 -0.54,-3.642 -0.79,-5.405 -1.002,-6.918 -1.859,-13.21 -2.554,-18.634 -0.095,-0.79 -0.202,-1.551 -0.289,-2.303 h -65.584 c -7.264,0 -13.171,5.906 -13.171,13.171 0,7.265 5.907,13.171 13.171,13.171 z" /></g><g
           transform="translate(298.0318,288.6113)"
           id="g36"><path
             id="path38"
             style="fill:#ffffff;fill-opacity:1;fill-rule:nonzero;stroke:none"
             d="m 0,0 h -68.928 c -7.255,0 -13.171,5.906 -13.171,13.17 0,7.256 5.916,13.171 13.171,13.171 h 58.359 c 0.125,-1.185 0.376,-2.476 0.732,-3.854 C -8.479,17.333 -5.713,10.935 -2.052,3.854 -1.396,2.592 -0.713,1.301 0,0" /></g></g></g></g></svg>