<?xml version="1.0" encoding="UTF-8" standalone="no"?>
<svg
   xmlns:dc="http://purl.org/dc/elements/1.1/"
   xmlns:cc="http://creativecommons.org/ns#"
   xmlns:rdf="http://www.w3.org/1999/02/22-rdf-syntax-ns#"
   xmlns:svg="http://www.w3.org/2000/svg"
   xmlns="http://www.w3.org/2000/svg"
   viewBox="0 0 800 800"
   height="800"
   width="800"
   xml:space="preserve"
   id="svg2"
   version="1.1"><metadata
     id="metadata8"><rdf:RDF><cc:Work
         rdf:about=""><dc:format>image/svg+xml</dc:format><dc:type
           rdf:resource="http://purl.org/dc/dcmitype/StillImage" /></cc:Work></rdf:RDF></metadata><defs
     id="defs6"><clipPath
       id="clipPath18"
       clipPathUnits="userSpaceOnUse"><path
         id="path16"
         d="M 0,600 H 600 V 0 H 0 Z" /></clipPath></defs><g
     transform="matrix(1.3333333,0,0,-1.3333333,0,800)"
     id="g10"><g
       id="g12"><g
         clip-path="url(#clipPath18)"
         id="g14"><g
           transform="translate(561.6892,285.5396)"
           id="g20"><path
             id="path22"
             style="fill:#100f0d;fill-opacity:1;fill-rule:nonzero;stroke:none"
             d="m 0,0 c -3.311,-4.43 -14.811,-32.35 -28.08,-38.98 -13.28,-6.639 -86.26,-60.83 -99.53,-66.35 -13.27,-5.529 -56.4,-6.65 -61.92,-13.279 -5.531,-6.63 -101.741,-95.09 -101.741,-95.09 0,0 -23.569,13.38 -51.159,39.699 17.39,16.091 36.47,33.83 48.71,45.44 4.74,4.5 7.89,7.54 10.03,9.651 4.99,1.069 13.93,2.279 19.72,3.059 14.56,1.96 27.14,3.651 36.409,7.52 9.061,3.761 25.441,14.95 60.671,39.591 15.1,10.559 35.78,25.019 40.66,27.58 16.72,8.389 27.24,26.489 36.58,44.319 0.68,1.3 1.57,3.01 2.04,3.851 11.13,15.8 9.56,38.54 -3.85,53.38 -0.351,0.389 -0.77,0.849 -1.33,1.41 -0.57,0.559 -1.28,1.22 -2.2,1.979 3.84,11.05 4.679,18.151 3.27,25.14 -1.56,7.79 -6.62,18.4 -8.73,22.601 -7.84,15.66 -13.97,21.509 -17.89,24.549 -0.54,0.42 -1.09,0.821 -1.65,1.201 2.02,17.219 1.179,22.269 0.8,24.54 -1.78,10.549 -8.35,19.49 -24.27,33.03 -7.7,6.559 -17.04,13.619 -21.78,16.47 -0.5,0.299 -1.01,0.589 -1.531,0.87 4.111,3.37 7.381,5.729 9.301,6.5 11.06,4.429 44.24,-5.531 51.98,-11.061 7.74,-5.529 9.96,-47.55 9.96,-47.55 0,0 21,7.75 26.54,4.43 5.52,-3.319 31.78,-23.51 32.9,-30.14 1.1,-6.639 -4.15,-38.44 -4.15,-38.44 0,0 10.99,-1.369 15.469,-4.84 C -18.74,86.42 -9.561,66.07 -8.45,60.54 -7.34,55 -19.22,29.57 -19.22,29.57 c 0,0 15.01,-7.82 17.68,-10.78 C 3.72,12.99 3.32,4.431 0,0" /></g><g
           transform="translate(354.6794,478.4801)"
           id="g24"><path
             id="path26"
             style="fill:#ffffff;fill-opacity:1;fill-rule:nonzero;stroke:none"
             d="M 0,0 C 0.54,-5.87 0.76,-10.03 0.76,-10.03 H 0.77 C 0.77,-10.03 0.55,-5.87 0,0" /></g><g
           transform="translate(450.9792,308.3805)"
           id="g28"><path
             id="path30"
             style="fill:#100f0d;fill-opacity:1;fill-rule:nonzero;stroke:none"
             d="m 0,0 c -3.32,-4.431 -14.82,-32.341 -28.09,-38.98 -13.27,-6.63 -86.261,-60.831 -99.53,-66.35 -13.26,-5.521 -56.39,-6.641 -61.92,-13.271 -1.1,-1.33 -5.85,-5.95 -12.74,-12.479 -12.19,-11.551 -31.06,-29.101 -48.3,-45.061 -21.64,-20.04 -40.691,-37.559 -40.691,-37.559 0,0 -28.669,16.279 -59.769,48.24 l -28.84,34.199 c -13.77,19.04 -26.36,41.351 -35.25,66.851 0,0 111.68,66.349 116.12,79.62 4.42,13.269 5.51,47.54 5.51,47.54 0,0 -7.73,38.72 4.43,58.63 12.16,19.899 46.45,40.899 46.45,40.899 l 17.7,-5.529 c 0,0 56.399,57.51 67.45,61.93 1.92,0.769 4.5,1.099 7.52,1.099 14.3,0 38.06,-7.58 44.46,-12.149 2.179,-1.561 3.91,-6 5.29,-11.59 0.15,-0.62 0.3,-1.25 0.44,-1.9 0.15,-0.64 0.29,-1.3 0.42,-1.97 0.069,-0.33 0.14,-0.67 0.2,-1 0.14,-0.681 0.26,-1.36 0.38,-2.051 0.13,-0.689 0.25,-1.39 0.36,-2.09 0.12,-0.7 0.23,-1.399 0.33,-2.099 0.06,-0.38 0.12,-0.771 0.17,-1.151 0.71,-4.84 1.23,-9.66 1.6,-13.679 0.55,-5.871 0.77,-10.031 0.77,-10.031 0,0 5.28,1.96 11.259,3.481 3.821,0.979 7.931,1.779 11.101,1.779 1.74,0 3.2,-0.239 4.17,-0.829 5.53,-3.311 31.78,-23.5 32.899,-30.141 1.111,-6.63 -4.149,-38.429 -4.149,-38.429 0,0 10.99,-1.37 15.479,-4.84 6.021,-4.67 15.21,-25.021 16.311,-30.55 1.12,-5.53 -10.77,-30.961 -10.77,-30.961 0,0 15.02,-7.819 17.69,-10.779 C 3.71,13 3.32,4.43 0,0" /></g><g
           transform="translate(273.6374,468.7096)"
           id="g32"><path
             id="path34"
             style="fill:none;stroke:#ffffff;stroke-width:20;stroke-linecap:round;stroke-linejoin:miter;stroke-miterlimit:10;stroke-dasharray:none;stroke-opacity:1"
             d="M 0,0 C 0,0 93.142,-59.752 135.319,-166.952" /></g></g></g></g></svg>