<?xml version="1.0" encoding="UTF-8" standalone="no"?>
<svg
   xmlns:dc="http://purl.org/dc/elements/1.1/"
   xmlns:cc="http://creativecommons.org/ns#"
   xmlns:rdf="http://www.w3.org/1999/02/22-rdf-syntax-ns#"
   xmlns:svg="http://www.w3.org/2000/svg"
   xmlns="http://www.w3.org/2000/svg"
   viewBox="0 0 800 800"
   height="800"
   width="800"
   xml:space="preserve"
   id="svg2"
   version="1.1"><metadata
     id="metadata8"><rdf:RDF><cc:Work
         rdf:about=""><dc:format>image/svg+xml</dc:format><dc:type
           rdf:resource="http://purl.org/dc/dcmitype/StillImage" /></cc:Work></rdf:RDF></metadata><defs
     id="defs6"><clipPath
       id="clipPath18"
       clipPathUnits="userSpaceOnUse"><path
         id="path16"
         d="M 0,600 H 600 V 0 H 0 Z" /></clipPath></defs><g
     transform="matrix(1.3333333,0,0,-1.3333333,0,800)"
     id="g10"><g
       id="g12"><g
         clip-path="url(#clipPath18)"
         id="g14"><g
           transform="translate(161.3785,503.3453)"
           id="g20"><path
             id="path22"
             style="fill:#231f20;fill-opacity:1;fill-rule:nonzero;stroke:none"
             d="m 0,0 c -22.749,-25.592 -15.96,-73.993 30.468,-127.675 -34.821,2.902 -98.658,7.254 -110.266,-7.255 -11.606,-14.508 30.469,-59.485 23.214,-82.699 40.624,20.313 53.682,47.879 84.15,40.624 -2.902,-21.763 -2.902,-30.468 -24.665,-59.484 -21.762,-29.018 -62.386,-158.144 36.272,-190.063 98.658,-31.919 105.913,-5.803 153.791,-5.803 47.878,0 95.757,-36.272 142.183,21.762 46.428,58.034 21.764,185.71 -43.525,264.057 1.451,14.508 60.937,63.838 36.272,105.912 -8.706,11.607 -62.387,11.607 -75.445,14.509 13.058,33.37 -2.902,75.444 -34.821,59.485 -31.918,-15.96 -72.542,-68.19 -85.601,-69.641 -6.525,-0.725 -33.929,3.266 -60.935,17.41 C 44.059,-4.703 17.419,19.597 0,0" /></g><g
           transform="translate(217.9615,366.9644)"
           id="g24"><path
             id="path26"
             style="fill:#ffffff;fill-opacity:1;fill-rule:nonzero;stroke:none"
             d="m 0,0 -4.353,-39.173 c 0,0 68.191,-11.606 97.208,-7.254 29.017,4.353 97.207,21.763 108.814,17.41 11.607,-4.352 11.607,21.763 -13.058,26.116 C 163.947,1.451 85.601,-8.705 63.838,-5.803 42.075,-2.901 0,0 0,0" /></g></g></g></g></svg>