<svg xmlns="http://www.w3.org/2000/svg" xmlns:xlink="http://www.w3.org/1999/xlink" version="1.1" width="600" height="600" viewBox="0 0 600 600">
<defs>
<clipPath id="clip_0">
<path transform="matrix(1,0,0,-1,0,600)" d="M0 600H600V0H0Z"/>
</clipPath>
</defs>
<g clip-path="url(#clip_0)">
<path transform="matrix(1,0,0,-1,300,584.3477)" d="M0 0C-3.922 0-7.608 1.527-10.382 4.3L-280.048 273.966C-282.82 276.739-284.348 280.426-284.348 284.348-284.348 288.269-282.82 291.956-280.048 294.729L-10.382 564.396C-7.608 567.168-3.922 568.696 0 568.696 3.922 568.696 7.608 567.168 10.382 564.396L280.048 294.729C282.82 291.956 284.348 288.269 284.348 284.348 284.348 280.426 282.82 276.739 280.048 273.966L10.382 4.3C7.608 1.527 3.922 0 0 0" fill="#9b3430"/>
<path transform="matrix(1,0,0,-1,300,10.652283)" d="M0 0C-5.037 0-10.073-1.921-13.917-5.764L-283.583-275.431C-291.27-283.117-291.27-295.578-283.583-303.265L-13.917-572.931C-10.073-576.773-5.037-578.695 0-578.695 5.037-578.695 10.073-576.773 13.917-572.931L283.583-303.265C291.27-295.578 291.27-283.117 283.583-275.431L13.917-5.764C10.073-1.921 5.037 0 0 0M0-10C2.586-10 5.017-11.007 6.846-12.835L276.513-282.502C280.287-286.277 280.287-292.419 276.513-296.193L6.846-565.859C5.017-567.688 2.586-568.695 0-568.695-2.586-568.695-5.017-567.688-6.846-565.859L-276.513-296.193C-280.287-292.419-280.287-286.277-276.513-282.502L-6.846-12.835C-5.017-11.007-2.586-10 0-10" fill="#ffffff"/>
<path transform="matrix(1,0,0,-1,203.3125,394.33979)" d="M0 0C44.953-43.753 99.49-37.758 99.49-37.758 99.49-37.758 99.49-34.764 101.285-29.368 112.675-26.969 140.244-28.769 143.239-28.769 146.239-28.769 152.229-38.358 154.028-41.354 161.818-41.354 207.371-28.169 214.562-19.179 218.156-7.789 206.771 59.333 200.177 89.901 232.54 176.803 216.956 201.972 216.956 201.972 183.997 212.762 164.818 208.567 145.639 201.372 126.46 194.183 104.285 198.377 102.485 196.583 101.742 195.838 104.097 179.664 107.106 160.208 107.211 159.548 107.311 158.888 107.414 158.224 107.905 155.08 108.396 151.872 108.896 148.634 109.001 147.975 109.105 147.315 109.214 146.651 109.71 143.507 110.206 140.349 110.696 137.23 110.786 136.635 110.88 136.04 110.975 135.45 111.476 132.187 111.981 128.974 112.457 125.86 112.571 125.126 112.68 124.397 112.794 123.673 113.29 120.391 113.771 117.232 114.212 114.257 114.352 113.311 114.49 112.383 114.619 111.476 115.135 107.916 115.576 104.678 115.933 101.886 115.982 101.479 116.037 101.088 116.082 100.701 116.582 96.744 116.87 93.814 116.87 92.297 116.87 91.979 116.851 91.642 116.806 91.285 116.741 90.675 116.612 90.011 116.429 89.302 115.729 86.648 114.307 83.356 112.422 79.712 112.085 79.063 111.733 78.398 111.366 77.729 103.313 62.903 89.038 43.645 86.906 38.954 48.548 39.554 29.368 29.964 29.368 29.964L11.989 33.563C11.989 33.563 .6 25.77 0 0" fill="#ffffff"/>
<path transform="matrix(1,0,0,-1,286.999,370.4736)" stroke-width="10" stroke-linecap="round" stroke-miterlimit="10" stroke-linejoin="miter" fill="none" stroke="#ffffff" d="M0 0-113.107 158.178"/>
<path transform="matrix(1,0,0,-1,243.4258,239.39112)" d="M0 0-7.902-31.237-48.535 25.368-40.632 56.605Z" fill="#ffffff"/>
<path transform="matrix(1,0,0,-1,168.0146,232.18122)" d="M0 0-32.543 1.495 9.365-54.171 41.908-55.667Z" fill="#ffffff"/>
</g>
</svg>
