<svg xmlns="http://www.w3.org/2000/svg" xmlns:xlink="http://www.w3.org/1999/xlink" version="1.1" width="600" height="600" viewBox="0 0 600 600">
<defs>
<clipPath id="clip_0">
<path transform="matrix(1,0,0,-1,0,600)" d="M0 600H600V0H0Z"/>
</clipPath>
</defs>
<g clip-path="url(#clip_0)">
<path transform="matrix(1,0,0,-1,300,584.3477)" d="M0 0C-3.921 0-7.608 1.527-10.381 4.3L-280.048 273.966C-285.772 279.69-285.772 289.005-280.048 294.729L-10.381 564.396C-7.608 567.168-3.921 568.695 0 568.695 3.922 568.695 7.608 567.168 10.382 564.396L280.048 294.729C285.771 289.005 285.771 279.69 280.048 273.966L10.382 4.3C7.608 1.527 3.922 0 0 0" fill="#705844"/>
<path transform="matrix(1,0,0,-1,300,10.652527)" d="M0 0C-5.037 0-10.074-1.921-13.917-5.765L-283.583-275.431C-291.27-283.117-291.27-295.578-283.583-303.265L-13.917-572.931C-10.074-576.773-5.037-578.695 0-578.695 5.037-578.695 10.073-576.773 13.917-572.931L283.583-303.265C291.27-295.578 291.27-283.117 283.583-275.431L13.917-5.765C10.073-1.921 5.037 0 0 0M0-10C2.586-10 5.018-11.007 6.846-12.835L276.513-282.502C278.341-284.33 279.348-286.762 279.348-289.348 279.348-291.934 278.341-294.364 276.512-296.193L6.846-565.859C5.018-567.688 2.586-568.695 0-568.695-2.586-568.695-5.017-567.688-6.846-565.859L-276.512-296.193C-278.341-294.364-279.348-291.934-279.348-289.348-279.348-286.762-278.341-284.33-276.512-282.502L-6.846-12.835C-5.017-11.007-2.586-10 0-10" fill="#ffffff"/>
<path transform="matrix(1,0,0,-1,264.9463,446.4444)" d="M0 0-2.483 23.845C-2.564 24.627 2.59 27.596 12.985 32.766 23.376 37.93 29.42 40.602 31.117 40.778 32.81 40.954 35.515 38.996 39.236 34.907 42.954 30.812 45.06 26.425 45.549 21.734L48.521-6.802C48.603-7.583 43.636-10.532 33.638-15.661 23.632-20.783 17.46-23.471 15.114-23.715 12.769-23.959 9.855-21.953 6.389-17.709 2.914-13.458 .787-7.556 0 0M19.184 271.088 22.522 239.034C23.146 233.037 22.536 228.762 20.698 226.2 18.853 223.637 16.32 221.396 13.1 219.481L-25.519 195.702-31.561 200.604C-25.339 209.156-22.689 217.859-23.612 226.721L-28.253 271.284C-28.416 272.848-15.338 280.662 10.992 294.733 37.316 308.799 52.889 316.088 57.714 316.59 62.533 317.092 69.715 311.975 79.267 301.251 88.812 290.521 93.912 282.032 94.563 275.777L101.606 208.152C102.313 201.372 96.941 191.595 85.497 178.814 74.049 166.026 62.497 154.945 50.828 145.568L33.327 131.496 34.467 120.551C35.309 112.471 37.335 106.291 40.545 102.02 43.757 97.742 46.819 95.493 49.744 95.272L53.735 94.898 54.631 86.299C30.896 68.812 18.117 59.972 16.297 59.782 14.471 59.592 10.067 62.03 3.088 67.1-3.898 72.165-7.67 77.438-8.239 82.911L-13.735 135.684C-14.034 138.548-6.187 146.015 9.813 158.09 25.806 170.159 37.371 179.927 44.497 187.386 51.624 194.846 54.942 200.921 54.454 205.611L49.731 250.956C48.537 262.42 46.591 270.317 43.904 274.65 41.213 278.976 37.328 280.88 32.247 280.351 27.165 279.822 22.807 276.731 19.184 271.088" fill="#ffffff"/>
</g>
</svg>
