<svg xmlns="http://www.w3.org/2000/svg" xmlns:xlink="http://www.w3.org/1999/xlink" version="1.1" width="600" height="600" viewBox="0 0 600 600">
<defs>
<clipPath id="clip_0">
<path transform="matrix(1,0,0,-1,0,600)" d="M0 600H600V0H0Z"/>
</clipPath>
</defs>
<g clip-path="url(#clip_0)">
<path transform="matrix(1,0,0,-1,300,584.3477)" d="M0 0C-3.921 0-7.608 1.527-10.381 4.3L-280.048 273.966C-285.771 279.69-285.771 289.005-280.048 294.729L-10.381 564.396C-7.608 567.168-3.921 568.695 0 568.695 3.922 568.695 7.608 567.168 10.382 564.396L280.048 294.729C285.771 289.005 285.771 279.69 280.048 273.966L10.382 4.3C7.608 1.527 3.922 0 0 0" fill="#4f5050"/>
<path transform="matrix(1,0,0,-1,300,10.652527)" d="M0 0C-5.037 0-10.074-1.921-13.917-5.765L-283.583-275.431C-291.27-283.117-291.27-295.578-283.583-303.265L-13.917-572.931C-10.074-576.773-5.037-578.695 0-578.695 5.037-578.695 10.073-576.773 13.917-572.931L283.583-303.265C291.27-295.578 291.27-283.117 283.583-275.431L13.917-5.765C10.073-1.921 5.037 0 0 0M0-10C2.586-10 5.018-11.007 6.846-12.835L276.513-282.502C278.341-284.33 279.348-286.762 279.348-289.348 279.348-291.934 278.341-294.364 276.512-296.193L6.846-565.859C5.018-567.688 2.586-568.695 0-568.695-2.586-568.695-5.017-567.688-6.846-565.859L-276.512-296.193C-278.341-294.364-279.348-291.934-279.348-289.348-279.348-286.762-278.341-284.33-276.512-282.502L-6.846-12.835C-5.017-11.007-2.586-10 0-10" fill="#ffffff"/>
<path transform="matrix(1,0,0,-1,395.4141,342.9054)" d="M0 0H-137.893C-141.39 0-143.421 3.951-141.377 6.79-136.134 14.074-129.15 26.8-129.15 42.905-129.15 59.011-136.134 71.736-141.377 79.021-143.421 81.859-141.39 85.811-137.893 85.811H0Z" fill="#ffffff"/>
<path transform="matrix(1,0,0,-1,209.8921,342.9054)" d="M0 0H-49.732C-53.23 0-55.26 3.951-53.217 6.79-47.974 14.074-40.989 26.8-40.989 42.905-40.989 59.011-47.974 71.736-53.217 79.021-55.26 81.859-53.23 85.811-49.732 85.811H0C3.843 85.811 7.516 84.258 10.2 81.508 15.911 75.655 24.417 63.484 24.417 42.905 24.417 22.326 15.911 10.155 10.2 4.303 7.516 1.553 3.843 0 0 0" fill="#ffffff"/>
<path transform="matrix(1,0,0,-1,105.8447,342.9054)" d="M0 0H-10.508C-14.005 0-16.036 3.951-13.993 6.79-8.749 14.074-1.765 26.8-1.765 42.905-1.765 59.011-8.749 71.736-13.993 79.021-16.036 81.859-14.005 85.811-10.508 85.811H0C3.843 85.811 7.515 84.258 10.199 81.508 15.911 75.655 24.417 63.484 24.417 42.905 24.417 22.326 15.911 10.155 10.199 4.303 7.515 1.553 3.843 0 0 0" fill="#ffffff"/>
<path transform="matrix(1,0,0,-1,377.9307,396.3145)" d="M0 0 129.023 92.403C131.702 94.322 131.702 98.307 129.023 100.226L0 192.629C-2.637 194.518-6.304 192.633-6.304 189.391V3.238C-6.304-.004-2.637-1.889 0 0" fill="#ffffff"/>
</g>
</svg>
