<svg xmlns="http://www.w3.org/2000/svg" xmlns:xlink="http://www.w3.org/1999/xlink" version="1.1" width="600" height="600" viewBox="0 0 600 600">
<defs>
<clipPath id="clip_0">
<path transform="matrix(1,0,0,-1,0,600)" d="M0 600H600V0H0Z"/>
</clipPath>
</defs>
<g clip-path="url(#clip_0)">
<path transform="matrix(1,0,0,-1,300.0002,584.3477)" d="M0 0C-3.922 0-7.608 1.527-10.382 4.3L-280.048 273.966C-285.771 279.69-285.771 289.005-280.048 294.729L-10.382 564.396C-7.608 567.168-3.922 568.695 0 568.695 3.922 568.695 7.608 567.168 10.382 564.396L280.048 294.729C285.771 289.005 285.771 279.69 280.048 273.966L10.382 4.3C7.608 1.527 3.922 0 0 0" fill="#2d4568"/>
<path transform="matrix(1,0,0,-1,300.0002,10.652527)" d="M0 0C-5.037 0-10.074-1.921-13.917-5.765L-283.583-275.431C-291.27-283.117-291.27-295.578-283.583-303.265L-13.917-572.931C-10.074-576.773-5.037-578.695 0-578.695 5.037-578.695 10.073-576.773 13.917-572.931L283.583-303.265C291.27-295.578 291.27-283.117 283.583-275.431L13.917-5.765C10.073-1.921 5.037 0 0 0M0-10C2.586-10 5.017-11.007 6.846-12.835L276.513-282.502C278.341-284.33 279.348-286.762 279.348-289.348 279.348-291.934 278.341-294.364 276.512-296.193L6.846-565.859C5.017-567.688 2.586-568.695 0-568.695-2.586-568.695-5.018-567.688-6.846-565.859L-276.513-296.193C-280.287-292.419-280.287-286.276-276.513-282.502L-6.846-12.835C-5.018-11.007-2.586-10 0-10" fill="#ffffff"/>
<path transform="matrix(1,0,0,-1,357.3215,287.4268)" d="M0 0-21.821-14.767-10.227-38.512-35.897-38.737-41.444-65.159-59.638-49.325-76.768-63.385-79.736-34.866-108.143-29.484-86.884-7.917-99.68 17.141-75.113 18.932-57.156 50.09-38.242 23.083-16.414 31.798-25.147 11.654ZM44.584 8.896 4.646-18.131 25.868-61.588-21.114-62.001-31.265-110.356-64.563-81.378-95.912-107.108-101.346-54.916-153.334-45.065-114.428-5.594-137.847 40.265-92.886 43.543-60.021 100.568-25.406 51.142 14.543 67.091-1.44 30.225ZM66.875 109.862-14.846 87.366-70.307 159.709-109.584 66.666-200.302 67.812-147.504 1.605-228.723-65.152-124.403-81.729-121.827-169.125-59.629-117.582-9.365-162.837-8.669-86.22 73.363-97.988 40.297-24.903 114.479 12.121 34.95 46.39Z" fill="#ffffff"/>
</g>
</svg>
