<svg xmlns="http://www.w3.org/2000/svg" xmlns:xlink="http://www.w3.org/1999/xlink" version="1.1" width="600" height="600" viewBox="0 0 600 600">
<defs>
<clipPath id="clip_0">
<path transform="matrix(1,0,0,-1,0,600)" d="M0 600H600V0H0Z"/>
</clipPath>
</defs>
<g clip-path="url(#clip_0)">
<path transform="matrix(1,0,0,-1,299.9999,584.3477)" d="M0 0C-3.922 0-7.608 1.527-10.382 4.3L-280.048 273.966C-282.82 276.739-284.348 280.426-284.348 284.348-284.348 288.269-282.82 291.956-280.048 294.729L-10.382 564.396C-7.608 567.168-3.922 568.696 0 568.696 3.922 568.696 7.608 567.168 10.382 564.396L280.048 294.729C282.82 291.956 284.348 288.269 284.348 284.348 284.348 280.426 282.82 276.739 280.048 273.966L10.382 4.3C7.608 1.527 3.922 0 0 0" fill="#e56225"/>
<path transform="matrix(1,0,0,-1,299.9999,10.652283)" d="M0 0C-5.037 0-10.073-1.921-13.916-5.764L-283.583-275.431C-291.27-283.117-291.27-295.578-283.583-303.265L-13.916-572.931C-10.073-576.773-5.037-578.695 0-578.695 5.037-578.695 10.074-576.773 13.917-572.931L283.584-303.265C291.27-295.578 291.27-283.117 283.584-275.431L13.917-5.764C10.074-1.921 5.037 0 0 0M0-10C2.586-10 5.018-11.007 6.846-12.835L276.513-282.502C280.287-286.277 280.287-292.419 276.513-296.193L6.846-565.86C5.018-567.688 2.586-568.695 0-568.695-2.586-568.695-5.017-567.688-6.846-565.859L-276.512-296.193C-280.287-292.419-280.287-286.277-276.512-282.502L-6.846-12.835C-5.017-11.007-2.586-10 0-10" fill="#ffffff"/>
<path transform="matrix(1,0,0,-1,341.8378,315.1572)" d="M0 0C-20.452 28.297-32.123 57.666-36.485 69.928-37.152 71.804-39.806 71.804-40.473 69.928-44.835 57.666-56.506 28.297-76.958 0-103.711-37.014-117.271-54.971-117.271-86.121-117.271-129.636-81.994-164.912-38.479-164.912 5.036-164.912 40.313-129.636 40.313-86.121 40.313-54.971 26.753-37.014 0 0" fill="#ffffff"/>
<path transform="matrix(1,0,0,-1,397.7723,276.1357)" d="M0 0C-4.746-13.862-7.688-26.985-5.887-35.094 1.358-67.697-15.459-74.032-15.636-74.372-22.388-62.227-31.57-49.539-42.955-33.78L-44.925-31.063C-64.527-3.935-75.721 24.498-79.62 35.46-81.848 41.696-87.784 45.894-94.413 45.894-101.043 45.894-106.979 41.696-109.207 35.46-113.106 24.498-124.3-3.935-143.902-31.063L-145.872-33.78C-161.889-55.938-173.544-72.063-180.214-89.084-188.47-84.255-198.15-74.134-199.469-57.509-200.641-42.728-196.609-22.77-182.487 .906-167.092 26.716-170.262 55.244-194.034 73.81-177.732 82.414-162.74 70.835-157.809 62.489-148.979 47.546-137.312 48.534-131.318 56.15-120.451 69.961-138.648 83.692-140.773 105.172-142.178 119.364-137.151 143.209-113.113 156.205-121.356 129.96-108.88 111.625-91.696 103.923-78.564 98.036-57.011 112.037-62.716 122.036-36.538 106.807-42.125 83.328-44.775 73.928-47.862 62.975-51.539 46.592-42.491 39.936-33.444 33.279-15.45 37.235-13.132 58.188-13.132 58.188 14.264 41.66 0 0" fill="#ffffff"/>
</g>
</svg>
